REM DIRINDEX 1\2,1\3,1\4,1\5
REM DIRNAME folder01,folder02,folder03,folder04,folder05
TITLE ""
FILE "1Q_t_1327-1336.mp3" MP3
  TRACK 01 AUDIO
    TITLE "3:cjc004_4886"
    INDEX 01 00:00:00
  TRACK 02 AUDIO
    TITLE "0:"
    INDEX 01 00:01:03
  TRACK 03 AUDIO
    TITLE "4:cjc004_4887"
    INDEX 01 00:01:28
  TRACK 04 AUDIO
    TITLE "0:"
    INDEX 01 00:02:45
  TRACK 05 AUDIO
    TITLE "5:cjc004_4888"
    INDEX 01 00:02:71
  TRACK 06 AUDIO
    TITLE "0:"
    INDEX 01 00:06:57
  TRACK 07 AUDIO
    TITLE "3:cjc004_4889"
    INDEX 01 00:07:31
  TRACK 08 AUDIO
    TITLE "0:"
    INDEX 01 00:08:38
  TRACK 09 AUDIO
    TITLE "4:cjc004_4890"
    INDEX 01 00:08:68
  TRACK 10 AUDIO
    TITLE "0:"
    INDEX 01 00:10:10
  TRACK 11 AUDIO
    TITLE "5:cjc004_4891"
    INDEX 01 00:10:39
  TRACK 12 AUDIO
    TITLE "0:"
    INDEX 01 00:14:72
  TRACK 13 AUDIO
    TITLE "3:cjc004_4892"
    INDEX 01 00:15:52
  TRACK 14 AUDIO
    TITLE "0:"
    INDEX 01 00:16:55
  TRACK 15 AUDIO
    TITLE "4:cjc004_4893"
    INDEX 01 00:17:08
  TRACK 16 AUDIO
    TITLE "0:"
    INDEX 01 00:18:39
  TRACK 17 AUDIO
    TITLE "5:cjc004_4894"
    INDEX 01 00:18:66
  TRACK 18 AUDIO
    TITLE "0:"
    INDEX 01 00:23:06
  TRACK 19 AUDIO
    TITLE "3:cjc004_4895"
    INDEX 01 00:23:61
  TRACK 20 AUDIO
    TITLE "0:"
    INDEX 01 00:24:67
  TRACK 21 AUDIO
    TITLE "4:cjc004_4896"
    INDEX 01 00:25:19
  TRACK 22 AUDIO
    TITLE "0:"
    INDEX 01 00:26:40
  TRACK 23 AUDIO
    TITLE "5:cjc004_4897"
    INDEX 01 00:26:64
  TRACK 24 AUDIO
    TITLE "0:"
    INDEX 01 00:31:29
  TRACK 25 AUDIO
    TITLE "3:cjc004_4898"
    INDEX 01 00:32:01
  TRACK 26 AUDIO
    TITLE "0:"
    INDEX 01 00:33:07
  TRACK 27 AUDIO
    TITLE "4:cjc004_4899"
    INDEX 01 00:33:34
  TRACK 28 AUDIO
    TITLE "0:"
    INDEX 01 00:34:69
  TRACK 29 AUDIO
    TITLE "5:cjc004_4900"
    INDEX 01 00:35:17
  TRACK 30 AUDIO
    TITLE "0:"
    INDEX 01 00:38:47
  TRACK 31 AUDIO
    TITLE "3:cjc004_4901"
    INDEX 01 00:39:29
  TRACK 32 AUDIO
    TITLE "0:"
    INDEX 01 00:40:36
  TRACK 33 AUDIO
    TITLE "4:cjc004_4902"
    INDEX 01 00:40:68
  TRACK 34 AUDIO
    TITLE "0:"
    INDEX 01 00:41:67
  TRACK 35 AUDIO
    TITLE "5:cjc004_4903"
    INDEX 01 00:42:18
  TRACK 36 AUDIO
    TITLE "0:"
    INDEX 01 00:47:15
  TRACK 37 AUDIO
    TITLE "3:cjc004_4904"
    INDEX 01 00:47:72
  TRACK 38 AUDIO
    TITLE "0:"
    INDEX 01 00:49:14
  TRACK 39 AUDIO
    TITLE "4:cjc004_4905"
    INDEX 01 00:49:43
  TRACK 40 AUDIO
    TITLE "0:"
    INDEX 01 00:50:54
  TRACK 41 AUDIO
    TITLE "5:cjc004_4906"
    INDEX 01 00:50:74
  TRACK 42 AUDIO
    TITLE "0:"
    INDEX 01 00:54:52
  TRACK 43 AUDIO
    TITLE "3:cjc004_4907"
    INDEX 01 00:55:32
  TRACK 44 AUDIO
    TITLE "0:"
    INDEX 01 00:56:41
  TRACK 45 AUDIO
    TITLE "4:cjc004_4908"
    INDEX 01 00:56:65
  TRACK 46 AUDIO
    TITLE "0:"
    INDEX 01 00:57:60
  TRACK 47 AUDIO
    TITLE "5:cjc004_4909"
    INDEX 01 00:58:09
  TRACK 48 AUDIO
    TITLE "0:"
    INDEX 01 01:02:34
  TRACK 49 AUDIO
    TITLE "3:cjc004_4910"
    INDEX 01 01:03:16
  TRACK 50 AUDIO
    TITLE "0:"
    INDEX 01 01:04:31
  TRACK 51 AUDIO
    TITLE "4:cjc004_4911"
    INDEX 01 01:04:54
  TRACK 52 AUDIO
    TITLE "0:"
    INDEX 01 01:06:10
  TRACK 53 AUDIO
    TITLE "5:cjc004_4912"
    INDEX 01 01:06:34
  TRACK 54 AUDIO
    TITLE "0:"
    INDEX 01 01:11:11
  TRACK 55 AUDIO
    TITLE "3:cjc004_4913"
    INDEX 01 01:11:68
  TRACK 56 AUDIO
    TITLE "0:"
    INDEX 01 01:13:08
  TRACK 57 AUDIO
    TITLE "4:cjc004_4914"
    INDEX 01 01:13:40
  TRACK 58 AUDIO
    TITLE "0:"
    INDEX 01 01:14:47
  TRACK 59 AUDIO
    TITLE "5:cjc004_4915"
    INDEX 01 01:14:72
  TRACK 60 AUDIO
    TITLE "0:"
    INDEX 01 01:20:51
